<svg id="Layer_1" data-name="Layer 1" xmlns="http://www.w3.org/2000/svg"
     viewBox="0 0 648.06 713">
    <defs>
        <style>.cls-1{fill:#db2090;}.cls-2{fill:#e10098;}</style>
    </defs>
    <title>graphql-logo</title>
    <path class="cls-1"
          d="M85.6,580.38c6.23-1.26,12.62-1,18.92-.67,14.93,1.85,29.9,11.08,35.1,25.69,1.06,2.46.65,5.18.71,7.78-2.82,1.37-6.1,1-9.12.62-2-3-2.91-6.65-4.94-9.68-3-5.12-8-8.47-13-11.22-.41-.08-1.24-.25-1.66-.32-5.1-2.54-10.91-2.32-16.45-2.64-2.82.45-5.81,0-8.49,1.1C75,592.76,65.91,603,63.94,614.35c-1.6,4.24-1.19,8.86-1.39,13.29,0,9.39-.11,18.77.07,28.15a40.83,40.83,0,0,0,5.49,21.07,25.49,25.49,0,0,0,14.53,11.68c2.42,1.28,5.29.88,7.77,2,6.11.31,12.37.58,18.26-1.36,10-2.4,17.83-10.44,21.1-20,.36-2.61,1.26-5.12,1.6-7.73.28-4.86.18-9.73.17-14.59-10.61-.06-21.22.13-31.82-.1l-.87-1.81c-.24-.88-.49-1.75-.76-2.61a29.35,29.35,0,0,1,.76-3.73c.59-.62,1.17-1.25,1.75-1.87,13.3,0,26.61-.1,39.92,0,.63.76,1.27,1.52,1.91,2.27.09,5.86,0,11.71,0,17.57a15.31,15.31,0,0,1-.54,5.48c-.19,1.79-.28,3.59-.44,5.38-.92,2-1,4.3-1.9,6.33-4,11.73-13.73,21.52-25.72,25-5.75,2.3-12,2.21-18,2.73-3.31-.57-6.68-.52-10-.86-2.7-1-5.59-1.34-8.29-2.36a49.24,49.24,0,0,1-13.72-8.78A49.16,49.16,0,0,1,54.2,674c-.58-3-1.64-5.86-1.88-8.91-1.31-4-.57-8.3-.87-12.43-.8-6.48-.34-13-.44-19.54.29-8.67.38-17.49,3.28-25.77,2.92-8.69,8.56-16.58,16.52-21.33A48.17,48.17,0,0,1,85.6,580.38Z"
          transform="translate(-50.97 -18.5)"/>
    <path class="cls-1"
          d="M543.5,580.38c5.71-1.31,11.63-1,17.44-.65,1.62.29,3.28.54,4.9.94a38.46,38.46,0,0,1,19.32,9.51c6.16,5.87,10.05,13.77,11.92,22,.93,5.64,2.06,11.27,1.83,17-.18,12.54.89,25.21-1.49,37.6-1.25,8.15-4.4,16.41-10.23,22.4,0,.65,0,1.32,0,2,3.64,4.38,6.48,9.38,10.2,13.71.07,1.94.28,4.12-1.56,5.34-2.32,0-4.64,0-7-.07-5-3.29-7.58-9-11.31-13.55-4.12,1.6-8.31,3.22-12.75,3.62-2.48,1.23-5.37.36-8,1-3.34.69-6.67-.38-10-.38-4.31,0-8.41-1.5-12.49-2.69-8.72-3.21-16.36-9.76-20-18.37-2.51-5.3-3.63-11.11-4.59-16.85-.31-3.82.15-7.7-.66-11.48-.36-5.1,0-10.22-.14-15.32.12-2.85-.43-5.81.51-8.58.3-5.13-.25-10.38,1.4-15.34a40.65,40.65,0,0,1,19.34-27.52A38.86,38.86,0,0,1,543.5,580.38Zm-9.71,15.37c-4.45,2.87-7.28,7.41-9.74,12-1.07,3.21-2.42,6.37-2.85,9.74-.39,2.34-.45,4.75-1.07,7-.36,8.07-.17,16.16-.19,24.24.16,3.32-.28,6.71.52,10,.45,2.41.79,4.83,1.16,7.26a41.27,41.27,0,0,0,7.61,15.19c3.41,3.75,7.94,6.2,12.51,8.25,9,1.8,18.69,2.32,27.29-1.4a30.13,30.13,0,0,0,14.59-14.94,36.54,36.54,0,0,1,1.8-4.11c.16-1,.33-2,.49-2.92,1.31-2.75,1.22-5.82,1.44-8.79.92-2.2.47-4.63.6-6.94.3-8.11,0-16.22,0-24.32a11.47,11.47,0,0,0-.58-2.91c-.46-8.1-3-16.39-8.25-22.72-8.05-9.59-21.83-11.88-33.59-9.69C541.38,591.8,537.27,593.19,533.79,595.75Z"
          transform="translate(-50.97 -18.5)"/>
    <path class="cls-1"
          d="M412.75,580.06a91.89,91.89,0,0,1,9.24.06c.41,14,0,28,.22,42,.54,1.27,1.26-.2,1.42-.84,3.19-3.2,6.53-6.36,10.59-8.42a37.73,37.73,0,0,0,4.66-1.92c1.48-.17,3-.3,4.47-.49,4.2-1,8.61-.57,12.88-.34,4.6.77,9.29,1.83,13.25,4.42,7,4.35,11.84,11.56,14.14,19.41.47,3.64,1.8,7.17,1.69,10.89.16,16.46,0,32.91.08,49.37a12.91,12.91,0,0,1-.95,5c-2.74.17-5.48.16-8.21.15-.77-1.05-1.63-2.16-1.55-3.54-.07-16.21,0-32.43-.05-48.64-.11-2.34.15-4.79-.78-7A24.18,24.18,0,0,0,458.6,621.1l-1.85-.27c-3-1.12-6.24-.67-9.35-.78a24.3,24.3,0,0,0-18.23,8,28.84,28.84,0,0,0-6.47,19.15c0,16.47,0,32.95,0,49.43-.56.87-1.12,1.74-1.67,2.61-3.05-.26-7.41,1.5-9.24-1.83-.07-37.9,0-75.79,0-113.67A7.53,7.53,0,0,1,412.75,580.06Z"
          transform="translate(-50.97 -18.5)"/>
    <path class="cls-1"
          d="M627.52,581.1c2.18-.06,4.37-.07,6.56-.09l2.34,1.86c.11,35.41,0,70.82.09,106.22,19.46.08,38.92,0,58.39,0,3.43-.41,4.41,3.79,4.07,6.4a11.14,11.14,0,0,0-.78,2.39,6,6,0,0,1-4.86,1.9c-19.59,0-39.19,0-58.78,0-3.11-.14-7,1-8.93-2.25-.12-24.09,0-48.18,0-72.28.09-14.1-.19-28.21.15-42.32C626.32,582.36,626.91,581.72,627.52,581.1Z"
          transform="translate(-50.97 -18.5)"/>
    <path class="cls-1"
          d="M241.06,611.78c5.13-2,10.73-2,16.15-1.87a35.92,35.92,0,0,1,17.88,4.81c6,4,10.72,10.25,11.67,17.52.85,2.54.65,5.25.72,7.87,0,17.76,0,35.51,0,53.26,0,1.57-.1,3.16-.22,4.73-.74.56-1.45,1.14-2.16,1.72-2.73.22-5.67.28-7.9-1.57-.07-.89-.15-1.8-.24-2.69a31.27,31.27,0,0,1-.5-4.82c-2.31.5-3.65,2.49-5.45,3.81a38.63,38.63,0,0,1-6.45,3.65l-2.57.89c-1.38.43-2.79.78-4.21,1.1a41.13,41.13,0,0,1-23.63-1.1c-7-2.91-13.28-8.19-16.11-15.35-1.73-4.09-1.42-8.62-1-12.93,1.2-3.95,3-7.84,6.05-10.72,3.24-3.37,7.38-5.63,11.58-7.58,2.44-1,5-1.66,7.47-2.46,2.34-.57,4.76-.78,7.06-1.53,2.07-.2,4.14-.28,6.22-.47,3.79-1.37,7.9-.87,11.71-1.94,2.11-.17,4.21-.3,6.3-.68a30.76,30.76,0,0,0,3.31-.66,20.11,20.11,0,0,0-.22-9.16,16.6,16.6,0,0,0-11.36-14.13,34.53,34.53,0,0,0-22,.17,21,21,0,0,0-8.84,7c-1.07,1.71-1.27,3.94-2.87,5.31-1.47,1.55-3.79,1-5.69,1a6.41,6.41,0,0,0-2.56-1.12c-.23-2.73-.73-5.71.7-8.22C227.25,618.79,233.94,614.11,241.06,611.78ZM265.94,656c-2.09.25-4.26.15-6.25.92-4.28,0-8.36,1.36-12.57,1.93-5.74,1.64-11.82,3.36-16.18,7.68-1.91,1.81-2.64,4.38-3.69,6.71a17.52,17.52,0,0,0,1.49,8c2.42,4.72,7.29,7.51,12.13,9.2,7.84,1.48,16.48,1.05,23.32-3.46,5.46-3.17,9-8.79,10.93-14.67,2-5.65,2.14-11.7,2-17.64C273.3,654.36,269.67,655.61,265.94,656Z"
          transform="translate(-50.97 -18.5)"/>
    <path class="cls-1"
          d="M324.88,622.08A33,33,0,0,1,348,610c5.73-.21,11.64-.36,17.12,1.63A31.86,31.86,0,0,1,386,633.09c1.25,4.35,2.59,8.76,2.49,13.34a54.91,54.91,0,0,1,0,19.43,45.64,45.64,0,0,1-3.76,15.69,32.06,32.06,0,0,1-22.66,19.09c-3.93.27-7.85,1.31-11.79.69-2.27-.33-4.55-.46-6.82-.72-1.83-.73-3.81-1-5.61-1.83a30.69,30.69,0,0,1-10.67-7.49,4.64,4.64,0,0,0-2.24-1.53c-.17-.3-.49-.93-.65-1.24-.18,13.1,0,26.21-.07,39.32a7.94,7.94,0,0,1-1,3.58,58.33,58.33,0,0,1-8.15-.13c-.25-.49-.77-1.47-1-2-.21-38.64,0-77.3-.12-116,1.74-2.41,4.87-1.93,7.47-1.78,1.85-.1,3.23,1.7,3.28,3.42C324.81,617.36,324.76,619.71,324.88,622.08Zm17.66-.92c-10.75,4.29-17.75,15.49-17.82,26.91-.8,2.49-.48,5.12-.52,7.68,0,2.83-.29,5.74.55,8.5a29,29,0,0,0,4.63,15.1c3.31,5.43,8.89,9,14.78,11.08,6.94,1.3,14.5,1.21,20.81-2.29,5.5-3.15,9.27-8.58,11.34-14.48a40.17,40.17,0,0,1,1.61-6.92c.11-2.12,0-4.31.81-6.31a66,66,0,0,0-3-24,24.29,24.29,0,0,0-17.72-16C352.9,619.08,347.59,619.87,342.54,621.16Z"
          transform="translate(-50.97 -18.5)"/>
    <path class="cls-1"
          d="M189.74,612.49a65.66,65.66,0,0,1,17.76-.76c3.45,1.56,2.45,6.29,1.39,9.13-5.39,1.89-11.21-.05-16.68,1.46-7.7,1.37-13.43,8-15.15,15.46-.75,19.31,0,38.66-.4,58-.21,1.6-1.36,3.49-3.18,3.51a37.26,37.26,0,0,1-6.51-.11,11.06,11.06,0,0,1-1-4.19q0-38.79,0-77.58c0-1.73.05-3.8,1.56-4.95,1.92-1.26,4.45-1.16,6.58-.57,4,2.09,2,7.18,3.09,10.72.15-.54.45-1.63.61-2.17A23,23,0,0,1,189.74,612.49Z"
          transform="translate(-50.97 -18.5)"/>
    <path class="cls-2" d="M193,394l-18.08-10.44L376.4,34.58,394.49,45Z" transform="translate(-50.97 -18.5)"/>
    <path class="cls-2" d="M170.8,355.64H573.73v20.88H170.8Z" transform="translate(-50.97 -18.5)"/>
    <path class="cls-2"
          d="M380.31,483.74,178.77,367.37l10.44-18.08L390.75,465.65ZM555.39,180.46,353.85,64.1,364.29,46,565.83,162.38Z"
          transform="translate(-50.97 -18.5)"/>
    <path class="cls-2" d="M189.27,180.38,178.82,162.3,380.37,45.93,390.81,64Z" transform="translate(-50.97 -18.5)"/>
    <path class="cls-2"
          d="M551.68,394,350.21,45l18.08-10.44L569.76,383.52ZM186.77,148.45h20.89V381.18H186.77Zm350.23,0h20.88V381.18H537Z"
          transform="translate(-50.97 -18.5)"/>
    <path class="cls-2" d="M376.76,474.9l-9.12-15.8L542.92,357.9,552,373.69Z" transform="translate(-50.97 -18.5)"/>
    <path class="cls-2"
          d="M585.56,388a43.93,43.93,0,1,1-16.11-60,44,44,0,0,1,16.11,60M235.08,185.56a43.93,43.93,0,1,1-16.1-60,44,44,0,0,1,16.1,60M159.1,388a43.93,43.93,0,1,1,60,16.1,44,44,0,0,1-60-16.1M509.57,185.56a43.93,43.93,0,1,1,60,16.1,44,44,0,0,1-60-16.1M372.33,511.13a43.91,43.91,0,1,1,43.9-43.91,43.87,43.87,0,0,1-43.9,43.91m0-404.82a43.91,43.91,0,1,1,43.9-43.91,43.87,43.87,0,0,1-43.9,43.91"
          transform="translate(-50.97 -18.5)"/>
</svg>