<svg viewBox="0 0 2000 2000" fill="none" xmlns="http://www.w3.org/2000/svg">
    <path d="M168.814 1877C115.081 1877 64.7331 1866.86 17.7699 1846.59C12.6928 1844.48 8.46184 1841.1 5.0771 1836.45C1.69237 1831.38 0 1826.1 0 1820.61C0 1813.43 2.32701 1807.31 6.98102 1802.24C12.0581 1796.75 18.4045 1794 26.0202 1794C30.2511 1794 34.2705 1794.85 38.0783 1796.54C77.0027 1813.86 118.677 1822.51 163.102 1822.51C237.143 1822.51 274.164 1798.23 274.164 1749.66C274.164 1736.98 269.298 1726.42 259.567 1717.98C250.259 1709.53 238.624 1702.98 224.662 1698.34C210.7 1693.27 190.814 1687.36 165.006 1680.6C130.735 1671.73 103.023 1663.28 81.8683 1655.26C60.7137 1646.81 42.5207 1634.35 27.2894 1617.88C12.0581 1601.4 4.44246 1579.44 4.44246 1551.99C4.44246 1527.91 10.7888 1506.16 23.4816 1486.73C36.1744 1466.88 54.7904 1451.25 79.3297 1439.85C104.292 1428.02 134.12 1422.11 168.814 1422.11C215.354 1422.11 257.451 1429.08 295.107 1443.01C306.953 1447.24 312.876 1455.68 312.876 1468.36C312.876 1475.11 310.549 1481.24 305.896 1486.73C301.241 1492.22 295.107 1494.97 287.491 1494.97C284.952 1494.97 281.568 1494.12 277.337 1492.43C244.336 1481.03 210.277 1475.32 175.16 1475.32C141.736 1475.32 114.446 1481.66 93.2918 1494.33C72.5603 1507 62.1945 1524.74 62.1945 1547.55C62.1945 1562.76 67.0601 1575.22 76.7912 1584.93C86.9454 1594.22 99.4266 1601.61 114.235 1607.1C129.466 1612.17 149.986 1617.66 175.795 1623.58C209.219 1631.6 236.085 1639.63 256.394 1647.65C277.125 1655.68 294.684 1668.14 309.069 1685.03C323.877 1701.93 331.281 1724.74 331.281 1753.46C331.281 1777.11 324.512 1798.44 310.973 1817.45C297.434 1836.03 278.395 1850.6 253.855 1861.16C229.316 1871.72 200.969 1877 168.814 1877Z"
          fill="#52BA8A"/>
    <path d="M407.056 1873.83C399.017 1873.83 392.248 1871.09 386.747 1865.6C381.247 1860.11 378.497 1853.35 378.497 1845.32V1434.14C378.497 1426.12 381.247 1419.36 386.747 1413.87C392.248 1407.96 399.017 1405 407.056 1405C415.095 1405 421.864 1407.96 427.364 1413.87C433.287 1419.36 436.249 1426.12 436.249 1434.14V1693.27L587.293 1553.89C593.639 1548.4 599.986 1545.65 606.332 1545.65C616.063 1545.65 623.044 1548.4 627.275 1553.89C631.929 1559.38 634.256 1565.92 634.256 1573.53C634.256 1580.71 630.66 1587.89 623.467 1595.07L532.079 1676.8L646.949 1828.85C651.18 1834.34 653.295 1840.04 653.295 1845.96C653.295 1854.4 650.545 1861.16 645.045 1866.23C639.545 1871.3 632.564 1873.83 624.102 1873.83C619.871 1873.83 615.64 1872.78 611.409 1870.66C607.178 1868.55 603.582 1865.6 600.62 1861.79L491.463 1713.54L436.249 1763.59V1845.32C436.249 1853.35 433.287 1860.11 427.364 1865.6C421.864 1871.09 415.095 1873.83 407.056 1873.83Z"
          fill="#52BA8A"/>
    <path d="M726.229 1481.66C717.344 1481.66 709.728 1478.49 703.382 1472.16C697.036 1465.82 693.862 1458.22 693.862 1449.35V1446.81C693.862 1437.94 697.036 1430.34 703.382 1424.01C709.728 1417.67 717.344 1414.5 726.229 1414.5H730.037C738.922 1414.5 746.537 1417.67 752.884 1424.01C759.23 1430.34 762.403 1437.94 762.403 1446.81V1449.35C762.403 1458.22 759.23 1465.82 752.884 1472.16C746.537 1478.49 738.922 1481.66 730.037 1481.66H726.229ZM727.498 1873.83C719.46 1873.83 712.69 1871.09 707.19 1865.6C701.69 1860.11 698.94 1853.35 698.94 1845.32V1573.53C698.94 1565.5 701.69 1558.74 707.19 1553.25C712.69 1547.34 719.46 1544.38 727.498 1544.38C735.96 1544.38 742.941 1547.13 748.441 1552.62C753.942 1558.11 756.692 1565.08 756.692 1573.53V1845.32C756.692 1853.35 753.73 1860.11 747.807 1865.6C742.307 1871.09 735.537 1873.83 727.498 1873.83Z"
          fill="#52BA8A"/>
    <path d="M860.153 1873.83C852.114 1873.83 845.344 1871.09 839.844 1865.6C834.344 1860.11 831.594 1853.35 831.594 1845.32V1434.14C831.594 1426.12 834.344 1419.36 839.844 1413.87C845.344 1407.96 852.114 1405 860.153 1405C868.614 1405 875.595 1407.75 881.096 1413.24C886.596 1418.73 889.346 1425.7 889.346 1434.14V1845.32C889.346 1853.35 886.384 1860.11 880.461 1865.6C874.961 1871.09 868.191 1873.83 860.153 1873.83Z"
          fill="#52BA8A"/>
    <path d="M992.807 1873.83C984.768 1873.83 977.998 1871.09 972.498 1865.6C966.998 1860.11 964.248 1853.35 964.248 1845.32V1434.14C964.248 1426.12 966.998 1419.36 972.498 1413.87C977.998 1407.96 984.768 1405 992.807 1405C1001.27 1405 1008.25 1407.75 1013.75 1413.24C1019.25 1418.73 1022 1425.7 1022 1434.14V1845.32C1022 1853.35 1019.04 1860.11 1013.12 1865.6C1007.61 1871.09 1000.85 1873.83 992.807 1873.83Z"
          fill="#52BA8A"/>
    <path d="M1425.38 1857.28C1395.3 1857.28 1366.28 1850.93 1338.32 1838.25C1310.36 1825.56 1287.48 1806.32 1269.69 1780.52C1251.9 1754.3 1243 1722.38 1243 1684.74V1434.18C1243 1426.14 1245.75 1419.38 1251.26 1413.88C1256.77 1407.96 1263.55 1405 1271.6 1405C1279.65 1405 1286.42 1407.96 1291.93 1413.88C1297.86 1419.38 1300.83 1426.14 1300.83 1434.18V1686.64C1300.83 1712.01 1306.55 1733.58 1317.99 1751.34C1329.85 1769.1 1345.31 1782.43 1364.38 1791.31C1383.44 1800.19 1403.78 1804.63 1425.38 1804.63C1446.99 1804.63 1467.32 1800.19 1486.39 1791.31C1505.45 1782.43 1520.7 1769.1 1532.14 1751.34C1544 1733.58 1549.93 1712.01 1549.93 1686.64V1434.18C1549.93 1426.14 1552.69 1419.38 1558.2 1413.88C1563.7 1407.96 1570.48 1405 1578.53 1405C1586.58 1405 1593.36 1407.96 1598.87 1413.88C1604.8 1419.38 1607.76 1426.14 1607.76 1434.18V1684.74C1607.76 1722.38 1598.87 1754.3 1581.07 1780.52C1563.28 1806.32 1540.4 1825.56 1512.44 1838.25C1484.48 1850.93 1455.46 1857.28 1425.38 1857.28Z"
          fill="#1BA2C9"/>
    <path d="M1708.32 2000C1700.27 2000 1693.49 1997.04 1687.98 1991.12C1682.47 1985.62 1679.72 1978.86 1679.72 1970.82V1552.8C1679.72 1544.76 1682.47 1538 1687.98 1532.5C1693.49 1527 1700.27 1524.25 1708.32 1524.25C1716.37 1524.25 1723.14 1527 1728.65 1532.5C1734.58 1538 1737.55 1544.76 1737.55 1552.8V1569.29C1768.48 1537.15 1804.7 1521.08 1846.21 1521.08C1872.48 1521.08 1897.26 1527.85 1920.57 1541.38C1944.29 1554.49 1963.35 1573.94 1977.76 1599.74C1992.59 1625.11 2000 1654.93 2000 1689.18C2000 1723.43 1992.59 1753.46 1977.76 1779.25C1963.35 1804.63 1944.29 1824.08 1920.57 1837.61C1897.26 1850.72 1872.48 1857.28 1846.21 1857.28C1804.7 1857.28 1768.48 1841.21 1737.55 1809.07V1970.82C1737.55 1979.28 1734.79 1986.26 1729.29 1991.75C1723.78 1997.25 1716.79 2000 1708.32 2000ZM1837.95 1803.36C1869.3 1803.36 1894.51 1793.42 1913.58 1773.54C1932.64 1753.67 1942.17 1725.55 1942.17 1689.18C1942.17 1652.81 1932.64 1624.69 1913.58 1604.81C1894.51 1584.94 1869.3 1575 1837.95 1575C1818.47 1575 1800.04 1579.44 1782.67 1588.32C1765.72 1596.78 1750.68 1608.2 1737.55 1622.57V1755.78C1750.68 1770.16 1765.72 1781.79 1782.67 1790.67C1800.04 1799.13 1818.47 1803.36 1837.95 1803.36Z"
          fill="#1BA2C9"/>
    <path d="M1665.84 0L1626.98 291.802L1562.42 242.075L1078.97 819.705L1075.88 823.421C954.953 983.362 828.846 1143.08 619.665 1143.08C568.613 1143.08 519.753 1132.85 474.986 1114.31C428.408 1094.99 386.684 1066.89 351.914 1032.13C317.174 997.356 289.054 955.595 269.775 908.994C251.256 864.249 241 815.333 241 764.239C241 659.617 283.409 564.906 351.914 496.35C386.684 461.562 428.408 433.442 474.986 414.153C516.086 397.132 560.701 387.099 607.263 385.577C621.461 385.105 633.345 377.112 639.112 364.141C643.357 354.595 647.968 345.232 652.868 336.082C665.832 311.936 680.988 289.267 698.076 268.379C714.951 247.719 734.155 228.384 755.443 210.693C776.274 193.398 798.749 178.052 822.67 164.99C847.092 151.622 873.052 140.585 900.152 132.227C926.568 124.081 954.247 118.418 982.9 115.541C1011.43 112.678 1039.64 112.724 1067.15 115.48C1095.5 118.311 1123.12 123.96 1149.6 132.15C1175.82 140.265 1200.92 150.831 1224.59 163.558C1248.72 176.545 1271.39 191.693 1292.25 208.775C1305.69 219.769 1318.56 231.75 1330.79 244.641L1288.11 304.675C1275.58 290.456 1261.66 277.079 1246.51 264.695C1228.95 250.338 1210.16 237.732 1190.42 227.105C1170.63 216.464 1149.89 207.725 1128.43 201.056C1106.38 194.236 1083.5 189.547 1060.11 187.217C1037.22 184.949 1013.74 184.888 989.976 187.278C966.253 189.653 943.322 194.373 921.319 201.148C898.737 208.105 877.267 217.24 857.12 228.247C837.232 239.117 818.607 251.815 801.488 266.05C784.43 280.223 768.499 296.331 753.967 314.128C743.68 326.704 734.292 339.919 725.907 353.681C720.018 363.318 718.923 374.037 722.697 384.663C726.501 395.305 734.139 402.902 744.776 406.647C751.38 408.946 757.908 411.458 764.36 414.123C796.756 427.551 826.808 445.226 853.787 466.449C878.21 485.662 874.026 509.747 860.559 523.221C847.427 536.36 826.671 537.456 812.261 525.733C789.497 507.281 764.177 492.072 736.985 480.806C701.028 465.901 661.404 457.664 619.68 457.664C577.956 457.664 538.332 465.901 502.375 480.806C465.14 496.243 431.436 519.05 403.026 547.458C347.592 602.936 313.309 679.576 313.309 764.224C313.309 805.969 321.511 845.614 336.438 881.59C351.868 918.844 374.662 952.581 403.041 980.99C431.451 1009.38 465.156 1032.19 502.391 1047.63C538.348 1062.53 577.971 1070.77 619.695 1070.77C793.793 1070.77 908.936 925.255 1019.26 779.308L1019.26 779.31L1458.22 161.823L1393.83 112.228L1665.84 0Z"
          fill="url(#paint0_linear_106_13)"/>
    <path d="M1349.77 583.973C1370.85 578.047 1392.85 574.847 1415.93 574.847C1452.81 574.847 1487.83 582.109 1519.6 595.278C1552.51 608.904 1582.29 629.061 1607.4 654.197C1632.5 679.317 1652.67 709.125 1666.3 742.041C1679.46 773.814 1686.72 808.846 1686.72 845.78C1686.72 882.684 1679.46 917.716 1666.3 949.504C1652.67 982.42 1632.5 1012.23 1607.4 1037.35C1558.41 1086.39 1490.72 1116.7 1415.94 1116.7H1098.23C1078.32 1116.7 1062.1 1132.93 1062.1 1152.84C1062.1 1172.77 1078.32 1189 1098.23 1189H1415.97C1510.68 1189 1596.46 1150.57 1658.54 1088.47C1690.02 1056.99 1715.47 1019.13 1732.96 976.908C1749.76 936.335 1759 892.032 1759 845.78C1759 799.513 1749.76 755.21 1732.96 714.637C1715.45 672.42 1690.01 634.572 1658.54 603.073C1627.04 571.573 1589.23 546.103 1547 528.61C1511.29 513.797 1472.64 504.83 1432.35 502.911C1427.81 502.697 1423.51 501.694 1419.58 500.016L1349.77 583.973Z"
          fill="url(#paint1_linear_106_13)"/>
    <defs>
        <linearGradient id="paint0_linear_106_13" x1="1703.95" y1="1102.1" x2="476.154" y2="320.631"
                        gradientUnits="userSpaceOnUse">
            <stop stop-color="#0CA0CB"/>
            <stop offset="1" stop-color="#48B891"/>
        </linearGradient>
        <linearGradient id="paint1_linear_106_13" x1="1703.95" y1="1102.1" x2="476.154" y2="320.631"
                        gradientUnits="userSpaceOnUse">
            <stop stop-color="#0CA0CB"/>
            <stop offset="1" stop-color="#48B891"/>
        </linearGradient>
    </defs>
</svg>
